#!OML:ASF X:\für Bonn\!DataBase\2005_08_10_Bjorn_Final\c3d\bjorn.ASF
:FULLY-SPECIFIED
:DEGREES
331
root 6.09059 18.8796 -0.30637 339.602 -263.872 -382.025
lowerback -1.93975 0.761895 -4.96456
upperback 6.05533 2.00757 -5.80766
thorax 7.5181 1.03486 -3.1542
lowerneck -7.25804 -2.7372 -0.703694
upperneck 12.7736 -3.5492 0.28099
head 5.04858 -1.712 -0.0235504
rclavicle 3.18055e-015 1.90833e-014
rhumerus -37.6842 -18.6834 -85.8373
rradius 22.8964
rwrist 7.46362
rhand -10.885 10.4469
rfingers 7.12502
rthumb 15.1313 -18.9799
lclavicle 3.18055e-015 1.90833e-014
lhumerus -21.445 5.90936 83.7968
lradius 40.3274
lwrist 15.4949
lhand -27.4632 2.27496
lfingers 7.12502
lthumb -0.867507 32.2529
rfemur -4.93153 -7.2628 12.8926
rtibia 32.8411
rfoot -22.42 15.8502
rtoes 1.27702
lfemur -7.17657 3.75248 -19.8111
ltibia 31.7301
lfoot -20.0247 -12.4238
ltoes 0.916722
332
root 6.13149 18.8739 -0.313083 338.831 -263.899 -382.512
lowerback -1.81154 0.791157 -5.16663
upperback 6.29838 2.09059 -5.87161
thorax 7.70887 1.07149 -3.10766
lowerneck -7.55713 -2.76219 -0.868181
upperneck 13.1152 -3.58567 0.476812
head 5.2121 -1.72146 0.0541639
rclavicle 4.37326e-015 6.36111e-015
rhumerus -37.4749 -17.9219 -86.5441
rradius 23.0698
rwrist 7.9063
rhand -10.6016 10.4133
rfingers 7.12502
rthumb 15.4042 -18.9928
lclavicle 4.37326e-015 6.36111e-015
lhumerus -21.0247 4.65642 84.1893
lradius 40.5706
lwrist 15.0336
lhand -26.2285 2.12581
lfingers 7.12502
lthumb 0.325036 32.1053
rfemur -5.10038 -7.20805 12.7953
rtibia 33.9217
rfoot -22.1716 15.5511
rtoes 0.74349
lfemur -6.58015 3.71129 -19.8799
ltibia 31.4786
lfoot -20.017 -12.0612
ltoes 0.355504
333
root 6.17159 18.8719 -0.320748 338.051 -263.922 -382.997
lowerback -1.64541 0.821359 -5.33814
upperback 6.53534 2.17065 -5.94431
thorax 7.87257 1.10917 -3.08842
lowerneck -7.84141 -2.77745 -0.984114
upperneck 13.4734 -3.60956 0.633841
head 5.37709 -1.72424 0.113154
rclavicle -3.26007e-014 5.24792e-014
rhumerus -37.2721 -17.3496 -87.1401
rradius 23.2019
rwrist 8.38829
rhand -10.2233 10.3973
rfingers 7.12502
rthumb 15.7686 -18.9804
lclavicle -3.26007e-014 5.24792e-014
lhumerus -20.6436 3.22951 84.5497
lradius 40.8304
lwrist 14.5429
lhand -25.0626 1.98672
lfingers 7.12502
lthumb 1.4511 31.9615
rfemur -5.32186 -7.19746 12.6911
rtibia 35.1364
rfoot -21.8262 15.2456
rtoes -0.145238
lfemur -5.9388 3.60331 -19.959
ltibia 31.1585
lfoot -19.969 -11.696
ltoes -0.0409074
334
root 6.21345 18.8738 -0.327745 337.491 -263.936 -383.271
lowerback -1.48657 0.844647 -5.51826
upperback 6.76871 2.24023 -5.99619
thorax 8.03567 1.13962 -3.04327
lowerneck -8.01386 -2.79039 -1.1007
upperneck 13.7065 -3.63536 0.817219
head 5.48505 -1.72721 0.18313
rclavicle -1.78906e-014 2.8625e-014
rhumerus -37.0782 -16.7783 -87.7094
rradius 23.3438
rwrist 8.64026
rhand -9.8342 10.4404
rfingers 7.12502
rthumb 16.1433 -18.9073
lclavicle -1.78906e-014 2.8625e-014
lhumerus -20.3294 1.72783 84.9031
lradius 41.1716
lwrist 14.087
lhand -23.9879 1.8496
lfingers 7.12502
lthumb 2.48904 31.8148
rfemur -5.60048 -7.2181 12.6138
rtibia 36.4586
rfoot -21.5086 14.8909
rtoes -1.7142
lfemur -5.28305 3.44443 -20.0208
ltibia 30.7905
lfoot -19.8432 -11.3509
ltoes -0.223119
335
root 6.25471 18.8756 -0.335351 337.254 -263.961 -383.21
lowerback -1.27149 0.856958 -5.65193
upperback 6.96185 2.27891 -6.03075
thorax 8.12148 1.15679 -3.00841
lowerneck -8.08792 -2.7797 -1.23077
upperneck 13.918 -3.62908 1.0143
head 5.56987 -1.71407 0.263759
rclavicle 2.62396e-014 -5.08889e-014
rhumerus -36.9877 -16.2667 -88.1746
rradius 23.4946
rwrist 8.90768
rhand -9.39164 10.513
rfingers 7.12502
rthumb 16.5694 -18.7996
lclavicle 2.62396e-014 -5.08889e-014
lhumerus -20.1304 0.295028 85.236
lradius 41.556
lwrist 13.3963
lhand -22.8696 1.73159
lfingers 7.12502
lthumb 3.56898 31.6815
rfemur -5.92582 -7.30066 12.5679
rtibia 37.8749
rfoot -21.1893 14.584
rtoes -3.61759
lfemur -4.60366 3.22735 -20.0498
ltibia 30.4063
lfoot -19.753 -10.9888
ltoes -0.400322
336
root 6.29637 18.8772 -0.342372 337.471 -263.974 -382.738
lowerback -1.11631 0.859856 -5.7567
upperback 7.16202 2.30803 -6.05047
thorax 8.25038 1.16929 -2.97414
lowerneck -8.19437 -2.7689 -1.2839
upperneck 14.1451 -3.62659 1.1633
head 5.66288 -1.70176 0.316208
rclavicle 3.89618e-014 8.74653e-014
rhumerus -36.8846 -15.8505 -88.5794
rradius 23.6279
rwrist 9.0586
rhand -8.98345 10.7042
rfingers 7.12502
rthumb 16.9624 -18.5752
lclavicle 3.89618e-014 8.74653e-014
lhumerus -19.9196 -1.03693 85.5688
lradius 41.9332
lwrist 12.4529
lhand -21.7443 1.57419
lfingers 7.12502
lthumb 4.65567 31.503
rfemur -6.33374 -7.38241 12.5719
rtibia 39.3344
rfoot -20.8714 14.3897
rtoes -5.2205
lfemur -3.99114 2.96903 -20.0457
ltibia 30.0499
lfoot -19.6806 -10.6228
ltoes -0.711857
337
root 6.33661 18.8767 -0.348602 337.983 -264.007 -381.968
lowerback -0.925593 0.852843 -5.85501
upperback 7.34471 2.31139 -6.02495
thorax 8.33638 1.16664 -2.89748
lowerneck -8.1833 -2.75825 -1.32401
upperneck 14.2959 -3.61526 1.23696
head 5.71021 -1.69072 0.345963
rclavicle 2.0276e-014 6.52014e-014
rhumerus -36.815 -15.361 -88.9231
rradius 23.7807
rwrist 9.0638
rhand -8.5733 10.9129
rfingers 7.12502
rthumb 17.3571 -18.3321
lclavicle 2.0276e-014 6.52014e-014
lhumerus -19.7654 -2.25494 85.9206
lradius 42.3404
lwrist 11.2073
lhand -20.6208 1.45714
lfingers 7.12502
lthumb 5.74047 31.3594
rfemur -6.78751 -7.47536 12.6268
rtibia 40.8253
rfoot -20.5388 14.2142
rtoes -6.81946
lfemur -3.39788 2.77394 -19.9881
ltibia 29.7191
lfoot -19.6417 -10.314
ltoes -1.06718
338
root 6.37643 18.8744 -0.354947 338.881 -264.045 -380.856
lowerback -0.768691 0.846754 -5.90015
upperback 7.5019 2.31076 -5.98982
thorax 8.41499 1.16411 -2.8396
lowerneck -8.03948 -2.75945 -1.31841
upperneck 14.3939 -3.62744 1.31872
head 5.71782 -1.68866 0.371367
rclavicle -1.03368e-014 -4.29375e-014
rhumerus -36.8077 -15.077 -89.1405
rradius 23.9257
rwrist 9.11931
rhand -8.17354 11.1817
rfingers 7.12502
rthumb 17.7419 -18.029
lclavicle -1.03368e-014 -4.29375e-014
lhumerus -19.6514 -3.40086 86.2473
lradius 42.7544
lwrist 9.56487
lhand -19.3584 1.41507
lfingers 7.12502
lthumb 6.95921 31.2807
rfemur -7.33257 -7.61014 12.7251
rtibia 42.3126
rfoot -19.9657 14.2069
rtoes -7.76718
lfemur -2.8599 2.5051 -19.9075
ltibia 29.4004
lfoot -19.5854 -9.98555
ltoes -1.21893
339
root 6.41784 18.877 -0.361576 340.274 -264.108 -379.29
lowerback -0.618542 0.845464 -5.878
upperback 7.61612 2.30494 -5.94356
thorax 8.45083 1.16224 -2.8068
lowerneck -7.87579 -2.7709 -1.2141
upperneck 14.5253 -3.6535 1.31498
head 5.72915 -1.69358 0.352994
rclavicle -7.95139e-016 1.59028e-015
rhumerus -36.8554 -14.7904 -89.3395
rradius 24.0847
rwrist 8.97121
rhand -7.80173 11.4405
rfingers 7.12502
rthumb 18.0996 -17.7374
lclavicle -7.95139e-016 1.59028e-015
lhumerus -19.5931 -4.45048 86.5592
lradius 43.165
lwrist 7.6921
lhand -18.1266 1.2451
lfingers 7.12502
lthumb 8.14815 31.068
rfemur -7.96097 -7.78366 12.8883
rtibia 43.7914
rfoot -19.3258 14.2269
rtoes -8.72525
lfemur -2.36252 2.2574 -19.7718
ltibia 29.0679
lfoot -19.5632 -9.67393
ltoes -1.49416
340
root 6.46075 18.8846 -0.367253 342.028 -264.188 -377.398
lowerback -0.459785 0.839136 -5.82775
upperback 7.68623 2.28057 -5.87946
thorax 8.43193 1.15162 -2.77132
lowerneck -7.68787 -2.75639 -1.03941
upperneck 14.6635 -3.64393 1.25211
head 5.7355 -1.68125 0.30756
rclavicle -4.37326e-015 1.90833e-014
rhumerus -36.9821 -14.6885 -89.4139
rradius 24.2354
rwrist 8.86102
rhand -7.40114 11.7484
rfingers 7.12502
rthumb 18.485 -17.3933
lclavicle -4.37326e-015 1.90833e-014
lhumerus -19.6163 -5.38351 86.8966
lradius 43.6181
lwrist 5.78912
lhand -16.9814 0.956378
lfingers 7.12502
lthumb 9.2533 30.7333
rfemur -8.6632 -7.94343 13.1111
rtibia 45.2236
rfoot -18.6688 14.2707
rtoes -9.61795
lfemur -1.89503 2.09275 -19.5848
ltibia 28.7296
lfoot -19.5461 -9.40702
ltoes -2.01633
341
root 6.50553 18.8937 -0.373195 343.84 -264.263 -375.486
lowerback -0.324653 0.828769 -5.75904
upperback 7.72571 2.24636 -5.80827
thorax 8.39287 1.13633 -2.73843
lowerneck -7.46243 -2.72981 -0.795658
upperneck 14.797 -3.6158 1.12434
head 5.7312 -1.66053 0.232422
rclavicle -2.54444e-014 -2.70347e-014
rhumerus -37.1588 -14.4908 -89.4901
rradius 24.42
rwrist 8.50249
rhand -7.16942 11.9419
rfingers 7.12502
rthumb 18.7079 -17.1785
lclavicle -2.54444e-014 -2.70347e-014
lhumerus -19.6746 -6.27089 87.2557
lradius 44.0703
lwrist 3.87399
lhand -16.0192 0.515258
lfingers 7.12502
lthumb 10.1816 30.2489
rfemur -9.44235 -8.14799 13.3398
rtibia 46.5902
rfoot -18.0664 14.3602
rtoes -10.9142
lfemur -1.4628 1.90237 -19.406
ltibia 28.3878
lfoot -19.5606 -9.13413
ltoes -2.58498
342
root 6.55017 18.8978 -0.37862 345.56 -264.316 -373.697
lowerback -0.221825 0.806545 -5.70113
upperback 7.75752 2.19918 -5.73982
thorax 8.36418 1.11362 -2.70285
lowerneck -7.24071 -2.7001 -0.453911
upperneck 14.9256 -3.58454 0.927975
head 5.72292 -1.63755 0.119922
rclavicle 4.37326e-015 6.36111e-015
rhumerus -37.3411 -14.3779 -89.5117
rradius 24.5935
rwrist 8.15758
rhand -7.12098 12.0284
rfingers 7.12502
rthumb 18.7545 -17.0875
lclavicle 4.37326e-015 6.36111e-015
lhumerus -19.7508 -7.06027 87.6148
lradius 44.5311
lwrist 1.91764
lhand -15.1101 -0.163947
lfingers 7.12502
lthumb 11.0586 29.5247
rfemur -10.2636 -8.36977 13.5528
rtibia 47.8497
rfoot -17.3647 14.7553
rtoes -10.7407
lfemur -1.06423 1.73332 -19.2389
ltibia 28.0465
lfoot -19.5411 -8.94703
ltoes -2.78097
